<?xml version="1.0" encoding="utf-8"?>
<!-- Generator: Adobe Illustrator 24.0.0, SVG Export Plug-In . SVG Version: 6.00 Build 0)  -->
<svg version="1.1" id="Layer_1" xmlns="http://www.w3.org/2000/svg" xmlns:xlink="http://www.w3.org/1999/xlink" x="0px" y="0px"
	 viewBox="0 0 200 200" style="enable-background:new 0 0 200 200;" xml:space="preserve">
<style type="text/css">
	.st0{fill:none;stroke:#44BBFF;stroke-miterlimit:10;}
</style>
<g>
	<path class="st0" d="M79.1,146.5c0.5,0,1,0.1,1.4,0.3c1,0.4,1.8,1.2,2.1,2.3l17.3,48.5l17.2-48.5c0.4-1,1.1-1.9,2.1-2.3
		c1-0.4,2.1-0.4,3.1,0.1L169,169l-22.1-46.5c-0.5-1-0.5-2.1-0.1-3.1c0.4-1,1.2-1.8,2.3-2.1l48.5-17.2L149,82.8
		c-1-0.4-1.9-1.1-2.3-2.1c-0.4-1-0.4-2.1,0.1-3.1L169,31l-46.5,22.1c-1,0.5-2.1,0.5-3.1,0.1c-1-0.4-1.8-1.2-2.1-2.3L100,2.5L82.8,51
		c-0.4,1-1.1,1.9-2.1,2.3c-1,0.4-2.1,0.4-3.1-0.1L31,31l22.1,46.5c0.5,1,0.5,2.1,0.1,3.1c-0.4,1-1.2,1.8-2.3,2.1L2.5,100L51,117.2
		c1,0.4,1.9,1.1,2.3,2.1c0.4,1,0.4,2.1-0.1,3.1L31,169l46.5-22.1C78,146.6,78.6,146.5,79.1,146.5z"/>
</g>
</svg>
