<?xml version="1.0" encoding="utf-8"?>
<!-- Generator: Adobe Illustrator 24.0.0, SVG Export Plug-In . SVG Version: 6.00 Build 0)  -->
<svg version="1.1" id="Layer_1" xmlns="http://www.w3.org/2000/svg" xmlns:xlink="http://www.w3.org/1999/xlink" x="0px" y="0px"
	 viewBox="0 0 439 439" style="enable-background:new 0 0 439 439;" xml:space="preserve">
<style type="text/css">
	.st0{fill:none;stroke:#44BBFF;stroke-miterlimit:10;}
</style>
<g>
	<path class="st0" d="M173.4,322.3c1.1,0,2.2,0.2,3.2,0.6c2.2,0.9,3.9,2.7,4.7,5L219.5,435l38.1-107.1c0.8-2.3,2.5-4.1,4.7-5
		s4.7-0.8,6.9,0.2l102.7,48.8l-48.8-102.7c-1-2.2-1.1-4.7-0.2-6.9c0.9-2.2,2.7-3.9,5-4.7L435,219.5l-107.1-38.1
		c-2.3-0.8-4.1-2.5-5-4.7s-0.9-4.7,0.2-6.9l48.8-102.7l-102.7,48.8c-2.2,1-4.7,1.1-6.9,0.2c-2.2-0.9-3.9-2.7-4.7-5L219.5,4
		l-38.1,107.1c-0.8,2.3-2.5,4.1-4.7,5s-4.7,0.9-6.9-0.2L67.1,67.1l48.8,102.7c1,2.2,1.1,4.7,0.2,6.9s-2.7,3.9-5,4.7L4,219.5
		l107.1,38.1c2.3,0.8,4.1,2.5,5,4.7s0.9,4.7-0.2,6.9L67.1,371.9l102.7-48.8C170.9,322.5,172.2,322.3,173.4,322.3z"/>
</g>
</svg>
