<?xml version="1.0" encoding="utf-8"?>
<!-- Generator: Adobe Illustrator 24.0.0, SVG Export Plug-In . SVG Version: 6.00 Build 0)  -->
<svg version="1.1" id="Layer_1" xmlns="http://www.w3.org/2000/svg" xmlns:xlink="http://www.w3.org/1999/xlink" x="0px" y="0px"
	 viewBox="0 0 103.3 103.3" style="enable-background:new 0 0 103.3 103.3;" xml:space="preserve">
<style type="text/css">
	.st0{fill:#B2B1B1;}
</style>
<g id="cristian-saenz-logo" transform="translate(-474.361 -1088.143)">
	<g id="Group_5" transform="translate(474.361 1088.143)">
		<g id="Group_1" transform="translate(41.322)">
			<path id="Path_3" class="st0" d="M57.7,62h-6.9c-2.4,0-4.3-1.9-4.3-4.3l0,0V19.8c0-2.4-1.9-4.3-4.3-4.3l0,0H4.3
				c-2.4,0-4.3-1.9-4.3-4.3l0,0V4.3C0,1.9,1.9,0,4.3,0l0,0h53.4C60.1,0,62,1.9,62,4.3l0,0v53.4C62,60.1,60,62,57.7,62z"/>
		</g>
		<g id="Group_2" transform="translate(0 41.322)">
			<path id="Path_4" class="st0" d="M4.3,0h6.9c2.4,0,4.3,1.9,4.3,4.3l0,0v37.9c0,2.4,1.9,4.3,4.3,4.3l0,0h37.9
				c2.4,0,4.3,1.9,4.3,4.3l0,0v6.9c0,2.3-2,4.3-4.3,4.3l0,0H4.3C1.9,62,0,60,0,57.7l0,0V4.3C0,1.9,1.9,0,4.3,0z"/>
		</g>
		<g id="Group_4" transform="translate(43.821 34.721)">
			<g id="Group_3">
				<path id="Rectangle_4" class="st0" d="M1.9,0h11.9c1,0,1.9,0.8,1.9,1.9v29.5c0,1-0.8,1.9-1.9,1.9H1.9c-1,0-1.9-0.8-1.9-1.9V1.9
					C0,0.8,0.8,0,1.9,0z"/>
			</g>
		</g>
	</g>
</g>
</svg>
